Scream of the Banshee (2011)(DivX)(Nl subs)(AC3) TBS  

Verenigde Staten
Horror

geregisseerd door Steven C. Miller
met Lauren Holly, Lance Henriksen en Edrick Browne

Wanneer een universiteitsprofessor een vreemde, sierlijke doos in de kelderverdieping van een 
universiteit ontdekt en opent, horen zij en haar studenten een ontstellende schreeuw afkomstig van een bloeddorstige geest.
Bij alles wat het hoort begint het op verraderlijke wijze te schreeuwen en te intimideren.
Aan het Ierse folkloristsche gezegde dat iedereen die de schreeuw van de "Banshee" hoort spoedig zal
sterven twijfelt niemand meer als er ook daadwerkelijk doden vallen.



Storyline

An archeology professor unearths a dangerous artifact, unwittingly releasing a creature that is able to kill with the power of its bone-splitting scream. 
In everything it should begin treacherously to yell and intimidate. 
To the Irish folklorist saying that anyone who hears the scream will soon die.  
nNo one doubts if there are actually more deaths. 




Info :

SOURCE..........: Scream.of.the.Banshee.2011.Tvrip
SIZE............: 700 MB
FORM............: AVI
VIDEO CODEC.....: XVID 
AUDIO...........: ENGELS
AUDIO CODE......: AC3
BITRATE.........: 192 kbps
CHANNELS........: 2
SUBTITELS.......: DUTCH
Category........: Video 
Format..........: DivX 
Source..........: TV  
Subtitle........: Dutch subs   
Genre...........: Horror  
Language........: English audio
Cover...........: Yes

General
Complete name                    : Scream of the Banshee (2011)(DivX)(Nl subs ext) TBS\Movie\Scream of the Banshee.avi
Format                           : AVI
Format/Info                      : Audio Video Interleave
File size                        : 700 MiB
Duration                         : 1h 27mn
Overall bit rate                 : 1 112 Kbps
Writing application              : VirtualDubMod 1.5.10.2 (build 2542/release)
Writing library                  : VirtualDubMod build 2542/release

Video
ID                               : 0
Format                           : MPEG-4 Visual
Format profile                   : Advanced Simple@L5
Format settings, BVOP            : Yes
Format settings, QPel            : No
Format settings, GMC             : No warppoints
Format settings, Matrix          : Default (H.263)
Muxing mode                      : Packed bitstream
Codec ID                         : XVID
Codec ID/Hint                    : XviD
Duration                         : 1h 27mn
Bit rate                         : 980 Kbps
Width                            : 624 pixels
Height                           : 352 pixels
Display aspect ratio             : 16:9
Frame rate                       : 23.976 fps
Color space                      : YUV
Chroma subsampling               : 4:2:0
Bit depth                        : 8 bits
Scan type                        : Progressive
Bits/(Pixel*Frame)               : 0.186
Stream size                      : 617 MiB (88%)
Writing library                  : XviD 1.2.1 (UTC 2008-12-04)

Audio
ID                               : 1
Format                           : MPEG Audio
Format version                   : Version 1
Format profile                   : Layer 3
Mode                             : Joint stereo
Mode extension                   : MS Stereo
Codec ID                         : 55
Codec ID/Hint                    : MP3
Duration                         : 1h 27mn
Bit rate mode                    : Variable
Bit rate                         : 120 Kbps
Nominal bit rate                 : 128 Kbps
Channel(s)                       : 2 channels
Sampling rate                    : 48.0 KHz
Video delay                      : 24ms
Stream size                      : 75.3 MiB (11%)
Alignment                        : Split accross interleaves
Interleave, duration             : 24 ms (0.58 video frame)
Interleave, preload duration     : 545 ms
Writing library                  : LAME3.98r
Encoding settings                : -m j -V 4 -q 2 -lowpass 17 --abr 128  
  
http://www.moviemeter.nl/film/72754 
http://www.imdb.com/title/tt1548628